<svg xmlns="http://www.w3.org/2000/svg" width="84" height="1636" viewBox="0 0 84 1636">
  <path fill="#FFA369" fill-rule="evenodd" d="M0,49.769374 C56.757155,47.5736685 1691.08586,47.5121137 1741.95864,49.357257 C1741.45608,51.6850801 1725.91498,51.1896388 1714.57245,51.2977351 C1701.93855,51.4178421 1689.16469,51.3330165 1676.44808,51.3330165 C1142.48425,51.3337672 608.507696,51.3450272 74.5438626,51.2932311 C52.5776604,51.2917298 28.8620502,52.063417 0,49.769374 Z M12.7564902,16.9823742 C12.2984634,16.0935827 16.5924647,15.2363192 22.0506174,15.2355685 C590.181978,15.1154616 1158.30698,15.0509041 1726.43834,15.0133706 C1734.51106,15.0133706 1743.56981,15.2595899 1744.17415,16.4966917 C1743.90697,16.8374952 1744.37136,17.1189959 1743.39805,17.2721323 C1742.22754,17.4530434 1739.83562,17.6256971 1737.95898,17.6286998 C1178.39018,18.5077327 618.79593,17.7855895 59.2144035,18.0115408 C46.54869,18.0167954 33.8448077,17.9222112 21.2617935,17.7608175 C18.1446666,17.721032 15.4283132,17.2391028 12.7564902,16.9823742 Z M12.7229668,66.9880205 C17.0742215,66.382231 20.910196,65.3785872 24.7588934,65.3785872 C594.181635,65.2990163 1163.61074,65.2892576 1733.03984,65.3373004 C1737.7537,65.3380511 1745.0376,65.9318299 1743.37725,66.9362244 C1696.86208,68.5036203 68.2714399,68.6192233 12.7229668,66.9880205 Z M1745.74372,33.3640988 C1698.91048,34.9517628 86.9805627,35.3713865 12.7229668,33.9481189 C13.3718381,31.8334857 26.5019399,31.7591695 39.3903053,31.7186334 C54.2189231,31.6728426 69.0602639,31.6908587 83.8952432,31.6908587 C613.787727,31.690108 1143.67385,31.6735933 1673.56633,31.7464081 C1696.62671,31.7494108 1723.34494,30.6481801 1745.74372,33.3640988 Z M12.7229668,81.0722015 L1743.32,81.0722015 C1741.58967,83.6177185 1728.40232,83.6057078 1715.48215,83.6207212 C1702.77826,83.6349839 1690.07438,83.6297292 1677.3705,83.6297292 C1143.8138,83.6297292 610.257103,83.6409892 76.7004055,83.5899438 C55.2494834,83.5884424 31.3939206,84.4096738 12.7229668,81.0722015 Z M12.7229668,0 L1740.07564,0 C1742.83653,2.63709855 1728.41504,2.51473958 1716.3155,2.59431045 C1703.6307,2.67763465 1690.88229,2.62358652 1678.15932,2.62358652 C1143.93467,2.62358652 609.710016,2.63334521 75.4790007,2.58905577 C53.9962712,2.58755443 30.1979617,3.36149369 12.7229668,0 Z" transform="rotate(90 97 -13)"/>
</svg>
