<svg xmlns="http://www.w3.org/2000/svg" width="473" height="346" viewBox="0 0 473 346">
  <g fill="none" fill-rule="evenodd">
    <path fill="#43594F" d="M90.1768227,238.112783 C85.7505564,256.484892 82.4115785,274.860863 81.3384274,293.604945 C81.2471774,295.204814 80.9502937,296.923097 80.2447129,298.333762 C78.6947486,301.427958 75.0678834,302.866939 71.9011238,301.981412 C68.5402973,301.041827 66.2821817,297.633578 66.5250866,293.674449 C67.4105969,279.181668 69.2625858,264.815024 72.2725497,250.604118 C73.3187114,245.666791 74.3623026,240.728177 75.4136051,235.762533 C48.4794403,234.566814 18.9864206,254.319985 15.1706295,288.556927 C11.6632889,320.027885 33.7265044,349.929863 67.5686778,353.747411 C98.5037042,357.239322 128.626477,335.555496 132.609346,301.449839 C136.327461,269.618492 114.102309,244.268997 90.1768227,238.112783 Z M317.804381,87.8422111 C257.037039,90.0148411 193.469223,141.038182 192.246987,219.380285 C191.103149,292.701399 250.805051,354.268688 325.495083,354.087206 C401.427913,353.904438 462.687491,289.650965 457.847386,212.707942 C453.143515,137.915669 391.512511,89.9273181 332.513619,87.8666661 L332.513619,90.388101 C332.513619,117.127668 332.514905,143.867234 332.511049,170.608088 C332.511049,171.608167 332.538039,172.615969 332.432651,173.607038 C332.018813,177.500525 328.043656,180.536801 324.188023,179.949882 C320.216722,179.346231 317.810807,176.252035 317.809522,171.648067 C317.79924,144.551973 317.804381,117.454592 317.804381,90.3572106 L317.804381,87.8422111 Z M0,290.026799 C0.48580972,286.860525 0.769841329,283.645342 1.48955943,280.533126 C8.52865953,250.089277 27.1603619,230.793028 57.3049836,222.743485 C63.8248585,221.002035 70.5388002,220.576004 77.2707349,220.964709 C78.9607872,221.061241 79.61753,220.45759 80.068639,218.920789 C85.2621763,201.211538 91.9504138,184.081483 100.228457,167.58597 C116.413118,135.336315 137.922408,107.32509 166.437382,85.0298909 C185.937887,69.7841549 207.539712,58.3057696 230.957539,50.3089982 C232.993314,49.6139625 233.638489,48.6975451 233.563947,46.536499 C233.373736,40.9826492 233.500972,35.4185026 233.500972,29.6201032 L231.0218,29.6201032 C220.597454,29.617529 210.173109,29.6522808 199.748763,29.5995096 C195.087303,29.5750546 191.789452,25.8540396 192.26498,21.3491788 C192.601705,18.1584503 195.332779,15.3551398 198.523957,14.9612862 C199.30151,14.8660406 200.089344,14.8351501 200.873323,14.833863 C213.797404,14.8261404 226.720199,14.8158436 239.642995,14.8351501 C245.367324,14.8441598 248.309172,17.8135067 248.329735,23.5591348 C248.350299,29.7809911 248.334876,36.0015603 248.334876,42.2221295 L248.334876,44.9778172 C271.178215,39.0558559 294.182204,36.2332389 317.803096,35.7145363 L317.803096,33.2703276 C317.804381,25.3327629 317.979169,17.3900497 317.73755,9.46149476 C317.597462,4.86782386 319.329926,1.81610245 323.445171,0 L334.584094,0 C336.729111,0.481376553 338.910114,0.843052519 341.01529,1.4634362 C355.837627,5.83829958 366.30824,19.6798061 366.529296,35.1083108 C366.588416,39.2244664 363.462783,42.7356836 359.578876,42.9133039 C355.46106,43.102508 352.001272,40.0739545 351.789213,35.7531494 C351.469195,29.1953592 349.157101,23.6672515 344.014972,19.479018 C340.735114,16.806992 336.984868,15.2907846 332.625433,14.9857412 L332.625433,72.5771686 C382.226862,76.5581784 421.45921,98.6809062 448.973005,140.137209 C468.59432,169.701967 475.997135,202.691706 471.91659,238.014963 C462.938107,315.725099 394.887475,372.258528 318.71174,368.834833 C243.064226,365.43302 183.18625,305.255802 177.875759,232.4225 C174.861939,191.080749 187.252658,154.735533 214.105854,123.168042 C232.79025,101.204915 271.130662,74.3713903 317.632162,72.6917208 L317.632162,50.5059249 C312.505456,50.7504745 307.459718,50.906214 302.425547,51.2447221 C283.367155,52.5241026 264.591509,55.5874079 246.251549,60.9481922 C228.948755,66.0052202 212.446647,73.007061 196.893025,82.2162836 C181.624719,91.2556085 167.788139,102.114897 155.342156,114.732369 C145.182564,125.031768 136.186088,136.3158 128.269189,148.426153 C113.322186,171.290252 102.37733,196.014215 94.4861349,222.130824 C94.3653251,222.528539 94.2869272,222.936551 94.1571209,223.471986 C94.810008,223.737129 95.3742156,224.003559 95.9641274,224.196625 C116.658593,230.993816 131.737973,244.238107 140.988921,263.960387 C147.38413,277.595957 149.287528,291.984483 146.727388,306.826068 C142.673832,330.325996 130.10447,348.050693 109.439564,359.727292 C94.6622088,368.07673 78.6112099,370.804101 61.8700527,367.842477 C36.4678593,363.3492 18.2204349,349.10483 6.90286774,326.01034 C3.13977023,318.328908 1.03073914,310.091449 0.389418902,301.516768 C0.348292154,300.969749 0.133661934,300.435601 0,299.895018 L0,290.026799 Z"/>
    <path fill="#FFA369" d="M325.052037,204.08894 C328.063235,200.995866 331.387484,198.714112 335.73685,198.1943 C341.598871,197.492618 347.832961,200.503141 350.767179,205.641926 C353.973392,211.257958 353.771961,218.327657 349.86908,222.972428 C346.934862,226.464067 343.602914,229.621634 340.412097,232.890128 C337.416295,235.957405 334.396116,239.000175 331.341297,242.006828 C327.310115,245.974424 322.432154,246.007961 318.486933,242.045524 C312.941813,236.477217 307.39541,230.90633 301.967043,225.224516 C293.99449,216.880439 295.854838,204.546839 305.858378,199.649257 C311.393234,196.94056 316.780545,197.630633 321.757297,201.261577 C322.843997,202.056128 323.812661,203.01707 325.052037,204.08894"/>
  </g>
</svg>
